<svg xmlns="http://www.w3.org/2000/svg" width="128" height="64" viewBox="0 0 128 64"><rect width="100%" height="100%" fill="#0b1215"/><rect x="0" y="0" width="64" height="64" fill="#00afb5"/><g transform="translate(16,8)"><rect x="12" y="7" width="9" height="3" fill="#17292c"/><rect x="11" y="9" width="11" height="3" fill="#f4c97e"/><rect x="13" y="12" width="7" height="6" fill="#e9b987"/><rect x="12" y="18" width="9" height="12" fill="#a9dfb2"/><rect x="11" y="30" width="5" height="9" fill="#5f989c"/><rect x="17" y="30" width="5" height="9" fill="#5f989c"/><rect x="10" y="39" width="6" height="2" fill="#17292c"/><rect x="17" y="39" width="6" height="2" fill="#17292c"/><rect x="21" y="20" width="3" height="10" fill="#a9dfb2"/><rect x="9" y="21" width="3" height="9" fill="#a9dfb2"/></g><g transform="translate(80,8)"><rect x="12" y="7" width="9" height="3" fill="#17292c"/><rect x="11" y="9" width="11" height="3" fill="#f4c97e"/><rect x="13" y="12" width="7" height="6" fill="#e9b987"/><rect x="12" y="18" width="9" height="12" fill="#a9dfb2"/><rect x="11" y="30" width="5" height="9" fill="#5f989c"/><rect x="17" y="30" width="5" height="9" fill="#5f989c"/><rect x="10" y="39" width="6" height="2" fill="#17292c"/><rect x="17" y="39" width="6" height="2" fill="#17292c"/><rect x="21" y="10" width="3" height="11" fill="#a9dfb2"/><rect x="9" y="21" width="3" height="9" fill="#a9dfb2"/></g></svg>